Patient4_TMGait_0pt8_01_right_31_EMG.mot
version=1
nRows=30
nColumns=33
inDegrees=no
endheader
time	1LAddLong	2LGlutMax	3LGlutMed	4LIliopsoas	5LSemiMemb	6LBicFemLong	7LRecFem	8LVastMed	9LVastLat	10LGasMed	11LTibAnt	12lTibPost	13LPeroneusLong	14LSol	15LExtDigLong	16LFlexDigLong	17RAddLong	18RGlutMax	19RGlutMed	20RIliopsoas	21RSemiMemb	22RBicFemLong	23RRecFem	24RVastMed	25RVastLat	26RGasMed	27RTibAnt	28RTibPost	29RPeroneusLong	30RSol	31RExtDigLong	32RFlexDigLong
34.65	-0.00473	0.047913	-0.068665	0.009308	-0.002747	-0.055237	0.10101	-0.00412	0.074768	-0.10132	0.13138	-0.021515	0.25131	0.21393	-0.084991	0.00412	-0.056458	0.38803	0.20523	-0.047455	0.15274	-0.010223	0.63629	-0.11917	-0.094147	-0.000153	0.062561	-0.002899	0.18509	-0.002747	-0.001678	0.00473
34.651	-0.006409	0.07019	-0.005646	0.000305	-0.053558	-0.024719	0.12283	-0.00351	0.077209	-0.032806	0.1152	-0.024109	0.26977	0.14282	0.080872	0.00824	-0.018463	0.37277	0.26474	-0.14191	0.15243	0.001373	0.7814	-0.039825	0.002441	0.001221	0.21011	-0.003204	-0.2919	0.037689	-0.003052	-0.004425
34.652	-0.006256	0.052948	0.031433	0.036926	-0.085449	0.028381	0.14542	0.00412	0.056458	-0.006866	0.058594	-0.022736	0.38284	0.053558	-0.010071	0.005035	0.012207	0.35873	0.28763	-0.19318	0.15717	0	0.89981	0.13062	0.070648	0.000305	0.21988	0.00473	-0.38528	-0.000916	-0.001831	-0.015717
34.653	-0.015106	0.03891	-0.071411	0.023956	-0.087585	0.09613	0.2095	0.005951	0.029449	-0.003052	0.025024	-0.013885	-0.076294	-0.10986	-0.11566	-0.019684	0.044708	0.31464	0.30807	-0.22461	0.15656	-0.00412	0.93506	0.18936	0.074768	0.000458	0.050049	-0.008545	-0.30075	-0.027466	-0.002441	-0.012665
34.654	-0.014648	0.05188	-0.10254	0.006561	-0.028992	0.041809	0.20187	0.012512	0.007172	-0.065308	0.011597	-0.02243	-0.35172	-0.094147	-0.057068	-0.058746	0.06424	0.34866	0.37125	-0.16846	0.16678	-0.003967	0.62546	0.21668	0.069733	-0.004425	0.097504	-0.007324	-0.02655	-0.034943	0	-0.018311
34.655	-0.000153	0.039825	-0.10986	-0.034485	0.15503	-0.032349	0.22095	0.014954	0.000458	-0.011444	0.010986	-0.023193	0.14481	-0.029755	-0.051117	-0.033264	0.056915	0.30762	0.46432	-0.071411	0.20401	-0.009003	0.34592	0.11047	0.031433	-0.012817	0.2121	-0.006104	-0.34576	0.004272	-0.001831	-0.011749
34.656	-0.00946	0.077057	-0.09552	-0.020447	0.15091	0.050354	0.22018	0.001984	0.049438	0.05127	0.000153	-0.02121	0.038147	0.1535	0.066223	0.071259	0.045471	0.24796	0.57327	0.021057	0.25024	-0.002136	0.27756	0.038605	0.005951	-0.002747	-0.4364	-0.003204	-0.63156	-0.025024	-0.00473	-0.017242
34.657	-0.010834	0.037994	-0.09201	-0.019836	0.076599	0.12772	0.19302	0.00473	0.071716	0.053101	-0.003357	-0.02182	-0.6427	0.080872	0.068207	-0.041199	0.036469	0.18402	0.40726	0.005646	0.22217	-0.018311	0.29739	0.086212	0.002747	-0.012665	-0.53909	-0.002594	-0.75516	-0.024261	0.00061	-0.021057
34.658	-0.014343	0.017242	-0.12161	0.009155	0.030823	0.015564	0.13123	0.007629	0.077057	0.019073	0.002136	-0.019379	-0.32089	-0.021973	0.054016	-0.066833	0.032196	0.14694	0.39169	-0.000305	0.17914	-0.009766	-0.021667	0.088501	0.023499	-0.010071	-0.20905	-0.005493	-0.029297	-0.092621	-0.002289	-0.012665
34.659	-0.000153	0.023041	-0.14755	0.023956	0.013123	-0.058441	0.012207	0.000916	0.14114	0.041351	-0.040131	-0.005951	-0.041351	-0.19959	0.01297	0.23911	0.014038	0.12573	0.38544	0.009613	0.13565	-0.020447	-0.21957	0.014038	-0.001678	-0.000153	0.089874	0.002747	0.78781	-0.1297	-0.004425	-0.019226
34.66	0.00412	0.041809	-0.1648	0.014343	0.002747	-0.007629	0.013428	0.011444	0.097046	0.012207	-0.071106	-0.006866	0.069122	-0.15869	0.16708	0.063934	0.011902	0.13382	0.35492	0.037384	0.088043	-0.032196	-0.2829	-0.074005	-0.006561	-0.011444	0.18951	-0.002289	0.60821	-0.063324	-0.000458	-0.020905
34.661	-0.002289	0.028992	-0.053711	0.019684	0.020142	0.11917	0.07782	0.008545	0.070343	0.024567	-0.055389	-0.002136	0.41565	-0.053711	0.076752	-0.13718	0.001221	0.14755	0.34225	0.07019	0.072784	-0.022278	-0.10498	-0.10681	-0.011139	-0.006866	0.15625	-0.007477	0.61966	-0.011444	-0.001068	-0.014954
34.662	-0.005035	0.037384	0.007935	0.002441	-0.002594	0.15457	0.14893	0.006409	0.070343	-0.065308	0.023041	-0.021973	0.63171	0.040131	-0.12894	-0.087585	-0.021667	0.13947	0.31143	0.10223	0.075684	-0.013885	0.030365	-0.12802	-0.03418	-0.005951	0.35004	-0.010834	0.58273	-0.048981	-0.000763	-0.027161
34.663	-0.004272	0.032654	-0.068817	-0.00061	0.012054	0.11414	0.15945	0.014191	0.02655	-0.066833	0.17822	-0.007019	0.019379	0.12924	-0.17883	-0.033722	-0.052795	0.10864	0.26627	0.099487	0.065155	0.001526	0.081024	-0.14404	-0.003204	0.003967	0.30243	-0.006866	0.26398	-0.077667	-0.001373	-0.022125
34.664	-0.000153	0.042114	-0.003052	0.001221	0.008087	0.061646	0.18921	0.005188	0.000153	-0.1268	0.12543	0.008545	0.034485	0.2002	-0.1004	0.003204	-0.024567	0.094299	0.31311	0.10361	0.056	-0.003967	0.16403	-0.1091	-0.005188	0.00885	0.098724	-0.002747	-0.43304	-0.11032	-0.000763	-0.014954
34.665	-0.003052	0.038452	0.012207	0.003204	0.006866	-0.024414	0.15427	0.018921	-0.007629	-0.13748	0.022125	0.007477	0.59036	0.11704	-0.090332	-0.005951	0.02594	0.027161	0.27756	0.024567	0.055237	0.007935	0.31342	-0.092316	0.015411	0.005188	0.10834	-0.00824	-0.6871	-0.092621	-0.001526	-0.021973
34.666	-0.001373	0.027924	0.016479	0.008392	0.008545	-0.084229	0.17303	0.009308	0.046539	-0.054779	0.019836	0.014191	0.098419	-0.15671	-0.057831	-0.013428	0.059814	0.06073	0.50919	-0.11063	0.045166	0.001678	0.31662	-0.055695	0.036621	-0.002594	-0.091553	-0.002594	-0.21042	-0.048218	0.002289	-0.014801
34.667	-0.007629	-0.000763	-0.034485	0.021973	0.014801	-0.13855	0.21088	0.003967	0.090332	-0.016174	0.02243	0.006256	0.10788	-0.19119	0.0383	-0.013428	0.077057	0.065308	0.5426	-0.19302	0.043335	-0.015869	0.40817	0.04837	0.010681	0.004578	-0.19821	-0.003967	0.26154	-0.036469	-0.000153	0.001526
34.668	-0.000153	-0.011749	0.008087	0.018463	0.010376	-0.11444	0.18631	0.012207	0.16113	-0.01236	-0.00946	0.005341	-0.64987	-0.1561	0.052948	0.002899	0.054474	0.071259	0.38849	-0.1059	0.042267	-0.016937	0.42984	0.058746	-0.004272	0.000458	-0.079193	-0.005493	-0.007019	-0.05249	0.001526	0.011597
34.669	-0.003967	-0.018158	-0.010986	0.028687	0.005188	-0.01358	0.14755	0.007324	0.18707	-0.027313	0.003815	0.013123	-0.34485	-0.11856	0.1387	-0.007019	0.03006	0.032806	0.28229	0.001373	0.044403	-0.00473	0.2211	0.065002	0.005951	-0.002441	0.006714	-0.007172	-0.68176	-0.039368	0.003967	0.005188
34.67	-0.02594	0.000916	0.025787	-0.00412	0.00412	0.046844	0.18066	0.003662	0.15091	-0.00824	-0.028534	0.025635	0.29602	-0.049744	-0.003967	-0.013123	-0.013123	0.010376	0.30502	0.055695	0.040894	0.015106	0.021057	0.071411	0.005646	0.00412	0.20752	-0.004425	-0.51727	-0.049744	0.000305	0.015411
34.671	-0.028992	-0.02121	-0.03067	0.00061	-0.001526	0.020142	0.11948	0.01358	0.065002	-0.016022	0.016785	0.042877	0.25146	-0.037079	0.037079	0.001831	-0.017242	0.030365	0.31174	0.08194	0.023346	0.011749	-0.11704	0.03952	0.003204	0.00351	0.25314	-0.001068	-0.18509	-0.047607	-0.002136	0.025787
34.672	0.027771	-0.024109	-0.058441	0.024719	0.009918	0.009613	0.10437	0.018158	0.004425	-0.020599	-0.065002	0.052795	0.271	0.088806	-0.036011	0.019226	-0.008545	-0.008698	0.34576	0.055237	0.036011	0.006561	-0.1503	0.019989	0.005646	0.001831	0.20371	-0.002594	0.004578	-0.080109	-0.001068	0.03067
34.673	-0.027618	-0.036469	-0.045166	0.006866	-0.003357	0.022888	0.19089	0.015717	-0.12482	0.018768	-0.03952	0.063934	-0.14908	0.060577	-0.053711	0.023346	0.10101	-0.029907	0.36011	-0.015106	0.031433	-0.011902	-0.11978	-0.061188	0.002899	-0.017242	-0.080261	-0.000305	0.075531	-0.081329	-0.002136	0.039978
34.674	-0.022736	-0.061035	-0.059967	0.016785	0.00885	0.029907	0.2417	0.009918	0.068359	0.034027	-0.014954	0.06134	-0.466	0.025482	0.014496	0.001526	0.098114	0.003204	0.3865	-0.001221	0.037994	-0.011139	-0.093384	-0.062866	-0.008392	-0.02182	-0.38727	-0.007782	0.31586	-0.05249	0	0.03479
34.675	-0.017548	-0.043945	-0.054932	0.021973	0.010529	0.078278	0.20813	0.006256	0.1088	0.083771	0.047302	0.058746	-0.15045	-0.076294	-0.009155	0.019073	0.050201	0.039978	0.33569	0.039215	0.035553	0.048828	-0.088654	-0.001221	0.000153	-0.018158	-0.50323	0.001678	0.20889	-0.014648	-0.001831	0.032959
34.676	0.001831	-0.065002	-0.032349	0.014343	0.003357	0.014801	0.13504	0.018005	0.075836	0.12482	0.12665	0.054932	-0.016327	-0.18417	-0.074768	0.005798	0.010223	0.019989	0.55771	0.034637	0.028839	0.05188	-0.003967	-0.04303	0.002136	-0.02533	-0.30304	-0.011444	0.082397	0.011597	0.006409	0.01358
34.677	0	-0.10559	-0.089417	-0.012512	0	0.023499	0.11017	0.002289	0.045319	0.095825	0.11307	0.042419	0.067596	-0.020599	0.012665	0.014648	-0.041199	-0.037994	0.14114	0.1091	0.016327	0.049591	0.013428	-0.036316	0.00061	-0.025635	-0.078735	-0.005341	-0.16876	-0.00061	0	-0.029907
34.678	-0.007477	-0.080872	-0.13336	-0.008698	0.007172	0.043945	0.14221	0.004272	0.041504	-0.025024	0.010529	0.014648	0.14694	0.052948	0.016022	0.012817	-0.070801	-0.04715	-0.00412	0.03418	-0.014343	0.058441	-0.010986	-0.052032	0.003967	-0.030212	-0.045776	-0.01236	-0.090485	0.001221	-0.00061	-0.031281
34.679	-0.016327	-0.054779	-0.22629	0.006256	0.01236	-0.014343	0.17609	-0.028381	0.0737	-0.15488	-0.24033	-0.040283	-0.016632	0.073395	0.072632	0.005951	-0.081787	-0.049286	0.15579	-0.076599	0.007477	0.066833	0.04715	-0.10376	0.00061	-0.030518	0.043945	-0.003052	-0.3302	-0.07431	-0.000458	-0.048828
